{"title":"The Fast and the Furious.mp4","uid":7121744,"size":2098329347,"categoryP":"video","categoryS":"movies","magnet":"?xt=urn:btih:6333239f31886e618337dfd5c4a8f76f5fc2831b&amp;dn=The+Fast+and+the+Furious.mp4&amp;tr=udp%3A%2F%2Ftracker.openbittorrent.com%3A80&amp;tr=udp%3A%2F%2Fopen.demonii.com%3A1337&amp;tr=udp%3A%2F%2Ftracker.coppersurfer.tk%3A6969&amp;tr=udp%3A%2F%2Fexodus.desync.com%3A6969","seeders":0,"leechers":1,"uploader":"chrismcchicken","files":1,"time":1332394402,"description":"An undercover cop infiltrates an underworld subculture of Los Angeles street racers looking to bust a hijacking ring, and soon begins to question his loyalties when his new street racing friends become the prime suspects. \n\n\nVideo\nFormat                                   : MPEG-4 Visual\nDuration                                 : 1h 46mn\nBit rate                                 : 2 388 Kbps\nWidth                                    : 852 pixels\nHeight                                   : 480 pixels\nDisplay aspect ratio                     : 16:9\nFrame rate mode                          : Constant\nFrame rate                               : 23.976 fps\nBits/(Pixel*Frame)                       : 0.244\nStream size                              : 1.78 GiB (91%)\n\nAudio\nID                                       : 2\nFormat                                   : AAC\nFormat/Info                              : Advanced Audio Codec\nCodec ID                                 : 40\nDuration                                 : 1h 46mn\nBit rate mode                            : Variable\nBit rate                                 : 224 Kbps\nChannel(s)                               : 6 channels\nChannel positions                        : Front: L C R, Side: L R, LFE\nSampling rate                            : 48.0 KHz\nCompression mode                         : Lossy\nStream size                              : 171 MiB (9%)\n\n","torrent":{"xt":"urn:btih:6333239f31886e618337dfd5c4a8f76f5fc2831b","amp;dn":"The+Fast+and+the+Furious.mp4","amp;tr":["udp%3A%2F%2Ftracker.openbittorrent.com%3A80","udp%3A%2F%2Fopen.demonii.com%3A1337","udp%3A%2F%2Ftracker.coppersurfer.tk%3A6969","udp%3A%2F%2Fexodus.desync.com%3A6969"],"infoHash":"6333239f31886e618337dfd5c4a8f76f5fc2831b","infoHashBuffer":{"type":"Buffer","data":[99,51,35,159,49,136,110,97,131,55,223,213,196,168,247,111,95,194,131,27]},"announce":[],"urlList":[]}}